<svg viewBox="0 0 254 196" xmlns="http://www.w3.org/2000/svg">
	<path d="M105.348 196C125.341 196 151.466 189.233 171.155 194.06C175.155 195.041 179.272 195.552 183.474 195.552C222.352 195.552 253.868 151.777 253.868 97.7762C253.868 43.7757 222.352 0 183.474 0C148.583 0 119.621 35.2591 114.048 81.5244C113.364 87.2065 109.495 91.2875 105.348 91.2875C95.8553 91.2875 83.4523 82.0634 78.6589 70.6816C71.3371 53.2953 57.7526 41.6163 42.2038 41.6163C18.8955 41.6163 0 67.8618 0 100.238C0 132.613 18.8955 158.859 42.2038 158.859C53.9187 158.859 70.4957 169.38 78.8164 180.834C85.628 190.209 95.0011 196 105.348 196Z" fill="url(#paint0_radial_932_311)"/>
	<defs>
		<radialGradient id="paint0_radial_932_311" cx="0" cy="0" r="1" gradientUnits="userSpaceOnUse" gradientTransform="translate(19.3302 113.215) rotate(-8.23381) scale(268.719 57.0863)">
			<stop offset="0.230625" stop-color="#FF3BD4"/>
			<stop offset="0.627709" stop-color="#7B1BF3"/>
			<stop offset="1" stop-color="#070710" stop-opacity="0"/>
		</radialGradient>
	</defs>
</svg>